<svg xmlns="http://www.w3.org/2000/svg" width="34.1" height="22.378" viewBox="0 0 34.1 22.378">
  <path id="Path_50" data-name="Path 50" d="M3272.083,657.427h-25.575a4.262,4.262,0,0,0-4.262,4.262v13.852a4.263,4.263,0,0,0,4.262,4.264h25.575a4.264,4.264,0,0,0,4.263-4.264V661.689a4.262,4.262,0,0,0-4.263-4.262m-27.707,5.594,7.46,5.6-7.46,5.593Zm29.839,12.52a2.134,2.134,0,0,1-2.132,2.131h-25.575a2.133,2.133,0,0,1-2.132-2.131l8.347-6.26,4.655,3.493a3.2,3.2,0,0,0,3.837,0l4.654-3.493Zm0-1.332-7.458-5.593,7.458-5.6Zm-13.64-2.289a2.131,2.131,0,0,1-2.557,0l-4.407-3.3-.888-.666-8.347-6.261h0a2.135,2.135,0,0,1,2.132-2.132h25.575a2.136,2.136,0,0,1,2.132,2.132Z" transform="translate(-3242.246 -657.427)" fill="#989898"/>
</svg>
