<svg xmlns="http://www.w3.org/2000/svg" width="23.894" height="31.858" viewBox="0 0 23.894 31.858">
  <path id="Path_51" data-name="Path 51" d="M3268.256,776.822V772.84a8.961,8.961,0,0,0-17.921,0v3.982a2.986,2.986,0,0,0-2.986,2.987v6.969a8.959,8.959,0,0,0,8.96,8.96h5.974a8.96,8.96,0,0,0,8.96-8.96v-6.969a2.986,2.986,0,0,0-2.987-2.987m-15.929-3.982a6.969,6.969,0,1,1,13.938,0v3.982h-1.992v-3.979a4.978,4.978,0,0,0-9.956,0v3.979h-1.99Zm10.951,0v3.982h-7.965V772.84a3.983,3.983,0,0,1,7.965,0m5.973,9.956v3.982a6.977,6.977,0,0,1-6.968,6.969h-5.974a6.979,6.979,0,0,1-6.97-6.969v-6.969a1,1,0,0,1,1-1h17.921a1,1,0,0,1,.995,1Z" transform="translate(-3247.349 -763.88)" fill="#989898"/>
</svg>
